<?xml version="1.0" encoding="UTF-8"?>
<svg version="1.1" xmlns="http://www.w3.org/2000/svg" width="325" height="325">
<path d="M0 0 C1.15086594 -0.00855011 1.15086594 -0.00855011 2.32498169 -0.01727295 C3.94352875 -0.02666225 5.56209441 -0.03323256 7.18066406 -0.03710938 C9.59216186 -0.04671311 12.00276761 -0.07775146 14.4140625 -0.109375 C55.39337649 -0.38942542 94.3773077 17.04477098 123.7578125 45.203125 C125.05912109 46.4096875 125.05912109 46.4096875 126.38671875 47.640625 C138.68698132 59.39848624 148.01580526 73.11418842 155.7578125 88.203125 C156.07588867 88.81478516 156.39396484 89.42644531 156.72167969 90.05664062 C166.51045677 109.10230722 172.83269052 130.97245288 172.9609375 152.4453125 C172.96663757 153.21255646 172.97233765 153.97980042 172.97821045 154.77029419 C172.98759975 156.38884125 172.99417006 158.00740691 172.99804688 159.62597656 C173.00765061 162.03747436 173.03868896 164.44808011 173.0703125 166.859375 C173.17003515 181.35456261 171.38829671 195.46764589 167.0078125 209.328125 C166.75177246 210.15594482 166.49573242 210.98376465 166.23193359 211.83666992 C163.66081275 219.90571193 160.45302492 227.59023932 156.7578125 235.203125 C156.46181152 235.82493652 156.16581055 236.44674805 155.86083984 237.08740234 C148.81494056 251.72353566 138.97406441 264.5000566 127.7578125 276.203125 C126.55125 277.50443359 126.55125 277.50443359 125.3203125 278.83203125 C113.56245126 291.13229382 99.84674908 300.46111776 84.7578125 308.203125 C84.14615234 308.52120117 83.53449219 308.83927734 82.90429688 309.16699219 C63.85863028 318.95576927 41.98848462 325.27800302 20.515625 325.40625 C19.74838104 325.41195007 18.98113708 325.41765015 18.19064331 325.42352295 C16.57209625 325.43291225 14.95353059 325.43948256 13.33496094 325.44335938 C10.92346314 325.45296311 8.51285739 325.48400146 6.1015625 325.515625 C-8.39362511 325.61534765 -22.50670839 323.83360921 -36.3671875 319.453125 C-37.19500732 319.19708496 -38.02282715 318.94104492 -38.87573242 318.67724609 C-46.94477443 316.10612525 -54.62930182 312.89833742 -62.2421875 309.203125 C-62.86399902 308.90712402 -63.48581055 308.61112305 -64.12646484 308.30615234 C-78.76259816 301.26025306 -91.5391191 291.41937691 -103.2421875 280.203125 C-104.10972656 279.39875 -104.97726563 278.594375 -105.87109375 277.765625 C-118.1606897 266.01796003 -127.53289368 252.29782439 -135.2421875 237.203125 C-135.72727783 236.25373047 -135.72727783 236.25373047 -136.22216797 235.28515625 C-145.89363121 216.07098453 -152.31615451 194.5863314 -152.4453125 172.9609375 C-152.45101257 172.19369354 -152.45671265 171.42644958 -152.46258545 170.63595581 C-152.47197475 169.01740875 -152.47854506 167.39884309 -152.48242188 165.78027344 C-152.49202561 163.36877564 -152.52306396 160.95816989 -152.5546875 158.546875 C-152.83473792 117.56756101 -135.40054152 78.5836298 -107.2421875 49.203125 C-106.4378125 48.33558594 -105.6334375 47.46804687 -104.8046875 46.57421875 C-93.05702253 34.2846228 -79.33688689 24.91241882 -64.2421875 17.203125 C-63.60925781 16.87973145 -62.97632812 16.55633789 -62.32421875 16.22314453 C-43.11004703 6.55168129 -21.6253939 0.12915799 0 0 Z M-85.2421875 64.203125 C-85.98855469 64.89792969 -86.73492187 65.59273437 -87.50390625 66.30859375 C-108.91572546 86.82358283 -122.66196984 115.85366628 -126.2421875 145.203125 C-126.35304688 146.10160156 -126.46390625 147.00007813 -126.578125 147.92578125 C-130.40546049 183.87170243 -119.78949849 219.96024821 -97.2421875 248.203125 C-93.73696125 252.3579169 -90.01365658 256.29088569 -86.2421875 260.203125 C-85.35466797 261.16798828 -85.35466797 261.16798828 -84.44921875 262.15234375 C-64.85986743 282.90254552 -35.26395735 295.78486655 -7.2421875 299.203125 C-6.34371094 299.31398438 -5.44523437 299.42484375 -4.51953125 299.5390625 C31.42638993 303.36639799 67.51493571 292.75043599 95.7578125 270.203125 C99.9126044 266.69789875 103.84557319 262.97459408 107.7578125 259.203125 C108.40105469 258.61144531 109.04429687 258.01976562 109.70703125 257.41015625 C130.45723302 237.82080493 143.33955405 208.22489485 146.7578125 180.203125 C146.86867188 179.30464844 146.97953125 178.40617188 147.09375 177.48046875 C150.92108549 141.53454757 140.30512349 105.44600179 117.7578125 77.203125 C114.25258625 73.0483331 110.52928158 69.11536431 106.7578125 65.203125 C106.16613281 64.55988281 105.57445312 63.91664062 104.96484375 63.25390625 C85.37549243 42.50370448 55.77958235 29.62138345 27.7578125 26.203125 C26.85933594 26.09226562 25.96085938 25.98140625 25.03515625 25.8671875 C-15.80955912 21.51825378 -55.71090299 35.87925247 -85.2421875 64.203125 Z " fill="#fff" transform="translate(152.2421875,-0.203125)"/>
<path d="M0 0 C0.33 0 0.66 0 1 0 C0.40134601 15.45669452 -0.56374626 30.86762548 -1.72949219 46.29150391 C-2.00334481 49.91930966 -2.27152636 53.54750473 -2.5390625 57.17578125 C-2.71321298 59.51044121 -2.88768026 61.84507756 -3.0625 64.1796875 C-3.14169678 65.2505661 -3.22089355 66.3214447 -3.30249023 67.42477417 C-3.41765991 68.93903488 -3.41765991 68.93903488 -3.53515625 70.48388672 C-3.600979 71.35906952 -3.66680176 72.23425232 -3.73461914 73.13595581 C-4.07099886 76.76623408 -4.54779052 80.38232419 -5 84 C8.86 84 22.72 84 37 84 C35.66465722 87.33835695 34.54929347 89.95813394 32.7421875 92.94921875 C32.2898877 93.70114502 31.83758789 94.45307129 31.37158203 95.2277832 C30.87770996 96.03948975 30.38383789 96.85119629 29.875 97.6875 C29.35147949 98.5539917 28.82795898 99.4204834 28.28857422 100.31323242 C23.25824216 108.61935065 18.16335147 116.88607643 13.06591797 125.15112305 C8.68617903 132.25274245 4.33120761 139.36868836 0 146.5 C-5.63767213 155.7805128 -11.32109509 165.03217662 -17.01928711 174.27563477 C-22.12036592 182.55581753 -27.1856883 190.85720929 -32.22070312 199.17773438 C-33.80539166 201.79043384 -35.39906825 204.39722277 -37 207 C-37.62245605 208.0120752 -38.24491211 209.02415039 -38.88623047 210.06689453 C-39.51029785 211.0670459 -40.13436523 212.06719727 -40.77734375 213.09765625 C-41.62993774 214.46869507 -41.62993774 214.46869507 -42.49975586 215.86743164 C-44 218 -44 218 -46 219 C-45.40134601 203.54330548 -44.43625374 188.13237452 -43.27050781 172.70849609 C-42.99665519 169.08069034 -42.72847364 165.45249527 -42.4609375 161.82421875 C-42.28678702 159.48955879 -42.11231974 157.15492244 -41.9375 154.8203125 C-41.85830322 153.7494339 -41.77910645 152.6785553 -41.69750977 151.57522583 C-41.62072998 150.56571869 -41.5439502 149.55621155 -41.46484375 148.51611328 C-41.399021 147.64093048 -41.33319824 146.76574768 -41.26538086 145.86404419 C-40.92900114 142.23376592 -40.45220948 138.61767581 -40 135 C-53.86 135 -67.72 135 -82 135 C-80.66465722 131.66164305 -79.54929347 129.04186606 -77.7421875 126.05078125 C-77.2898877 125.29885498 -76.83758789 124.54692871 -76.37158203 123.7722168 C-75.87770996 122.96051025 -75.38383789 122.14880371 -74.875 121.3125 C-74.35147949 120.4460083 -73.82795898 119.5795166 -73.28857422 118.68676758 C-68.25824216 110.38064935 -63.16335147 102.11392357 -58.06591797 93.84887695 C-53.68617903 86.74725755 -49.33120761 79.63131164 -45 72.5 C-39.36232787 63.2194872 -33.67890491 53.96782338 -27.98071289 44.72436523 C-22.87963408 36.44418247 -17.8143117 28.14279071 -12.77929688 19.82226562 C-1.9224941 1.9224941 -1.9224941 1.9224941 0 0 Z " fill="#fff" transform="translate(185,53)"/>
<path d="M0 0 C0.33 0 0.66 0 1 0 C1 2.97 1 5.94 1 9 C0.34 7.68 -0.32 6.36 -1 5 C-1.99 5.495 -1.99 5.495 -3 6 C-1.125 1.125 -1.125 1.125 0 0 Z " fill="#fff" transform="translate(185,53)"/>
</svg>
